<svg width="128" height="128" viewBox="0 0 128 128" fill="none" xmlns="http://www.w3.org/2000/svg">
  <defs>
    <linearGradient id="bg" x1="16" y1="12" x2="112" y2="116" gradientUnits="userSpaceOnUse">
      <stop stop-color="#0A5BD9"/>
      <stop offset="1" stop-color="#0E2E68"/>
    </linearGradient>
    <linearGradient id="up" x1="34" y1="82" x2="98" y2="34" gradientUnits="userSpaceOnUse">
      <stop stop-color="#79D9FF"/>
      <stop offset="1" stop-color="#A8FFEA"/>
    </linearGradient>
  </defs>

  <rect x="8" y="8" width="112" height="112" rx="28" fill="url(#bg)"/>
  <rect x="8.5" y="8.5" width="111" height="111" rx="27.5" stroke="#74B7FF" stroke-opacity="0.5"/>

  <line x1="28" y1="95" x2="100" y2="95" stroke="#9CC8FF" stroke-opacity="0.45" stroke-width="2"/>
  <line x1="28" y1="36" x2="28" y2="95" stroke="#9CC8FF" stroke-opacity="0.45" stroke-width="2"/>

  <line x1="41" y1="75" x2="41" y2="96" stroke="#47C46F" stroke-width="2.5"/>
  <rect x="36" y="66" width="10" height="15" rx="2" fill="#47C46F"/>

  <line x1="57" y1="59" x2="57" y2="90" stroke="#E96B6B" stroke-width="2.5"/>
  <rect x="52" y="62" width="10" height="18" rx="2" fill="#E96B6B"/>

  <line x1="73" y1="52" x2="73" y2="82" stroke="#47C46F" stroke-width="2.5"/>
  <rect x="68" y="45" width="10" height="19" rx="2" fill="#47C46F"/>

  <line x1="89" y1="41" x2="89" y2="69" stroke="#47C46F" stroke-width="2.5"/>
  <rect x="84" y="34" width="10" height="18" rx="2" fill="#47C46F"/>

  <path d="M34 82L52 70L65 73L96 46" stroke="url(#up)" stroke-width="4" stroke-linecap="round" stroke-linejoin="round"/>
  <path d="M88 46H96V54" stroke="url(#up)" stroke-width="4" stroke-linecap="round" stroke-linejoin="round"/>
</svg>

